<?xml version="1.0" encoding="UTF-8" standalone="no"?>
<svg width="51px" height="47px" viewBox="0 0 51 47" version="1.1" xmlns="http://www.w3.org/2000/svg" xmlns:xlink="http://www.w3.org/1999/xlink">
    <!-- Generator: Sketch 44.1 (41455) - http://www.bohemiancoding.com/sketch -->
    <title>Shape</title>
    <desc>Created with Sketch.</desc>
    <defs></defs>
    <g id="Symbols" stroke="none" stroke-width="1" fill="none" fill-rule="evenodd">
        <g id="Mobile-Top-Nav" transform="translate(-77.000000, -25.000000)" fill-rule="nonzero" fill="#F6A623">
            <g id="Group" transform="translate(0.000000, 5.000000)">
                <path d="M100.197961,67 C95.4307498,66.9514233 90.9565587,65.8179661 86.8671577,63.2466375 C83.1045867,60.8793312 80.256496,57.6505975 78.5386256,53.4341368 C77.068722,49.8678008 76.6403533,45.9538844 77.3037553,42.1513802 C78.3856756,35.7343934 81.6668564,30.6953666 86.4807576,26.6473053 C89.4682986,24.1499376 92.9360951,22.2994413 96.6672301,21.2115685 C99.5944017,20.3142543 102.649078,19.9104668 105.707382,20.0165808 C111.057414,20.2335569 115.977575,21.8074431 120.245686,25.2369607 C123.436189,27.7577718 125.796705,31.1876299 127.018958,35.0786074 C127.999888,38.1767134 128.249599,41.4620702 127.748288,44.6741321 C127.186398,48.4793097 125.703587,51.9072081 123.502717,54.9966885 C120.215096,59.6130977 115.919615,62.8661198 110.764394,64.9290118 C108.23042,65.9576421 105.556774,66.596312 102.833532,66.8235045 C101.954471,66.8866543 101.075411,66.9384695 100.197961,67 Z M93.1488521,36.6456851 C93.1801923,36.7392808 93.1999861,36.7673595 93.1950377,36.7891984 C92.8305021,38.3491262 92.4692655,39.909054 92.0981319,41.4783414 C91.9942146,41.9151212 92.1492659,42.4142981 92.4461727,42.5094537 C92.7430795,42.6046093 93.0465842,42.3534609 93.2313263,41.8745631 C93.6568927,40.7436154 94.0907065,39.6423064 94.4816338,38.5347577 C95.0700061,36.9312399 95.473177,35.27222 95.6841064,33.5866667 C95.7157211,33.3499865 95.6696553,33.1098357 95.5521478,32.8987385 C94.5443141,31.3668894 93.5133877,29.8506396 92.4824613,28.3343898 C92.3010183,28.0676421 92.0651423,27.8773309 91.7154521,28.0941609 C91.4300916,28.2719927 91.4020504,28.5839782 91.6148336,28.9521212 C91.8523591,29.3623822 92.0981319,29.7695233 92.3109152,30.1922638 C92.8057598,31.1718984 93.2775118,32.1640125 93.391326,33.2715613 C93.4597049,33.7855989 93.2311079,34.294797 92.792564,34.6052995 C90.4750414,36.4678533 88.4725699,38.6049544 86.9616442,41.1491967 C85.3880381,43.8010739 84.5698949,46.608944 85.2296878,49.6773219 C85.5595842,51.2247703 86.1764906,52.6645837 87.2981386,53.8516887 C88.484137,55.0799411 89.9596581,56.0264266 91.6049367,56.6143209 C94.8626642,57.8373043 98.2028658,57.8154653 101.574408,57.1571757 C102.701004,56.9372259 103.802858,56.5971617 104.914609,56.308575 C105.437495,56.1728613 105.704711,56.2914158 105.767391,56.8202313 C105.81225,57.2196224 105.776994,57.6234323 105.663474,58.0104563 C105.346773,59.0712072 104.952547,60.1085591 104.630898,61.1661902 C104.507421,61.6223914 104.43173,62.0889796 104.404919,62.5592057 C104.406713,62.7259069 104.492502,62.8817949 104.635847,62.9788263 C104.805439,63.0251198 104.988138,62.9945953 105.130691,62.8961501 C105.315402,62.7722621 105.463591,62.6058085 105.561206,62.4125725 C105.914195,61.6544476 106.31337,60.9056823 106.550896,60.111679 C107.04574,58.4831144 107.436668,56.8264711 107.890275,55.1869869 C108.055223,54.5630158 108.06677,54.0045617 107.695636,53.4242685 C106.705947,51.8643407 105.757495,50.2825739 104.790898,48.7117266 C104.675434,48.5229754 104.584713,48.2655873 104.261414,48.3997411 C103.943365,48.522684 103.778323,48.8558835 103.882033,49.1656656 C103.952967,49.3401353 104.04134,49.5078072 104.14595,49.6664024 C104.757908,50.7240335 105.350072,51.7879043 105.678319,52.9703295 C105.905948,53.7877317 105.711309,54.2182718 104.909661,54.4912591 C102.04451,55.4911729 99.1001842,55.9326324 96.0618378,55.6097274 C94.2309125,55.4147364 92.5072035,54.8859209 90.9682366,53.867288 C89.6882384,53.0186873 88.513807,52.0250133 87.8969006,50.6351176 C86.697727,47.9286429 86.9500978,45.1987692 88.1476219,42.545332 C89.1966926,40.2210396 90.9138037,38.3943642 92.8931824,36.7845187 C92.9733819,36.7304187 93.0590181,36.6839166 93.1488521,36.6456851 Z M110.304978,31.3698952 C112.519015,31.7831299 114.508071,32.9636898 115.909565,34.6963722 C117.326724,36.3957681 118.061726,38.2979597 117.735059,40.566441 C117.507895,42.1503033 117.064623,43.6969444 116.41718,45.1647139 C115.65976,46.8939789 114.743811,48.5131998 113.483579,49.9170486 C113.20611,50.2088822 112.891223,50.4641167 112.546813,50.6763531 C112.290603,50.8429914 112.06642,50.7298032 112.008773,50.4185355 C111.970092,50.2471634 111.970092,50.069556 112.008773,49.8981839 C112.20093,49.2080499 112.420309,48.5242042 112.626878,47.8372144 C112.857467,47.0731937 113.124886,46.3170332 113.296226,45.538864 C113.408318,45.0326609 113.160115,44.7261094 112.750179,44.6459344 C112.303414,44.5594711 112.044001,44.7481182 111.899884,45.2967669 C111.270569,47.6988732 110.638051,50.1009795 110.02635,52.507802 C109.856611,53.1743551 109.718899,53.836192 110.186481,54.4933127 C110.654064,55.1504334 110.987137,55.8814409 111.417889,56.5464219 C111.93191,57.3324514 112.489166,58.0776075 113.057631,58.8180473 C113.186671,58.9576012 113.37904,59.0233158 113.568449,58.9925459 C113.732053,58.885425 113.831464,58.7061082 113.834266,58.5130678 C113.802348,58.1531866 113.713195,57.8004365 113.57005,57.4676485 C113.224167,56.681619 112.769395,55.9521835 112.474754,55.1598657 C112.035995,54.0075464 112.011975,53.0328698 113.188938,52.055049 C113.732539,51.5846101 114.244936,51.0805224 114.722994,50.5458722 C117.453228,47.6108379 119.491696,44.3189461 119.932056,40.2032953 C120.233103,37.3971698 119.547742,34.9274649 117.595745,32.8523469 C115.587701,30.7253509 113.062435,29.7491022 110.244129,29.4677036 C107.16641,29.1532918 104.159149,29.6484904 101.209535,30.4769656 C100.464926,30.6860494 100.17669,30.5178391 100.263161,29.7380978 C100.375253,28.7304079 100.625057,27.7384386 100.785188,26.7338928 C100.853267,26.2812417 100.880062,25.8235291 100.865254,25.3662014 C100.831685,25.2018691 100.715221,25.0656131 100.556201,25.0046278 C100.405678,24.9763307 100.211919,25.0832308 100.064599,25.1775543 C99.9750468,25.2607941 99.9088649,25.3652923 99.8724413,25.4809617 C98.9169224,27.5736189 98.2885393,29.7958525 98.008516,32.0726056 C97.9757402,32.4484463 98.0378916,32.8264217 98.1894641,33.173047 C98.4510477,33.7804691 98.7532882,34.3702317 99.0942044,34.9384693 C99.7347286,36.0263343 100.392867,37.0969065 101.047803,38.173767 C101.189643,38.4495099 101.521428,38.5746316 101.814831,38.4630259 C102.15591,38.35927 102.200747,38.0762993 102.154309,37.7697478 C102.136198,37.6361309 102.096748,37.5061514 102.037413,37.3845933 C101.790811,36.9035432 101.528196,36.4287814 101.27679,35.9493034 C100.838031,35.1098238 100.344828,34.2892089 100.231135,33.3223926 C100.146265,32.6118219 100.413684,32.2015144 101.089437,32.0018629 C103.070315,31.4074359 105.117331,31.0511197 107.185626,30.940723 C108.226478,31.0837804 109.268931,31.1718157 110.304978,31.3698952 Z M109.700749,46.0624977 C109.40898,45.4663213 108.898383,45.0502084 108.090405,45.0033011 C107.250633,44.9594201 106.698889,45.3573754 106.326696,45.9369073 C105.977433,46.4909354 105.905103,47.1324547 106.124701,47.7284627 C106.35101,48.4139142 107.041157,48.9314074 107.807987,48.993446 C108.5318,49.0524584 109.259354,48.7104892 109.622196,48.0674056 C109.781676,47.7208036 109.907371,47.3646323 109.99813,47.0021564 C109.924904,46.6871828 109.824955,46.3718232 109.700749,46.0624977 Z M98.9989573,25.9479277 C98.9785177,25.7403393 98.9396355,25.5341523 98.8826,25.3309017 C98.6556081,24.7123633 98.2416816,24.2042242 97.4252736,24.0469431 C96.6088656,23.8896619 95.9812997,24.1346576 95.5025184,24.6760677 C94.7837605,25.5374102 94.8406138,26.6667217 95.643673,27.4799066 C95.9485947,27.7949672 96.4152135,27.9854444 96.9158061,27.9992008 C97.4163987,28.0129571 97.8985323,27.8485516 98.2302366,27.5509856 C98.7429664,27.1178519 99.0192391,26.5417244 98.9989573,25.9479277 Z" id="Shape"></path>
            </g>
        </g>
    </g>
</svg>