<?xml version="1.0" encoding="utf-8"?>
<!-- Generator: Adobe Illustrator 21.1.0, SVG Export Plug-In . SVG Version: 6.00 Build 0)  -->
<svg version="1.1" id="Layer_1" xmlns="http://www.w3.org/2000/svg" xmlns:xlink="http://www.w3.org/1999/xlink" x="0px" y="0px"
	 viewBox="0 0 316.7 290.3" style="enable-background:new 0 0 316.7 290.3;" xml:space="preserve">
<style type="text/css">
	.st0{fill:#FFBC49;}
	.st1{fill:#FFFFFF;}
</style>
<title>SGSC_LOGO</title>
<path class="st0" d="M144.1,290.3c-29.6-0.3-57.4-7.3-82.8-23.2c-23.4-14.6-41.1-34.6-51.7-60.6c-9.1-22-11.8-46.2-7.7-69.7
	c6.7-39.6,27.1-70.8,57-95.8C77.4,25.7,99,14.2,122.1,7.5c18.2-5.5,37.2-8,56.1-7.4c33.2,1.3,63.8,11.1,90.3,32.2
	c19.8,15.6,34.5,36.8,42.1,60.8c6.1,19.1,7.6,39.4,4.5,59.3c-3.5,23.5-12.7,44.7-26.4,63.8c-20.4,28.5-47.1,48.6-79.1,61.3
	c-15.7,6.4-32.3,10.3-49.3,11.7C155,289.6,149.5,289.9,144.1,290.3z M101.7,104.8c0.2,0.6,0.3,0.8,0.3,0.9c-2.2,10-4.4,20-6.6,30.1
	c-0.6,2.8,0.3,6,2.1,6.6s3.6-1,4.8-4.1c0-0.1,0-0.2,0.1-0.2c2.5-7,5.1-14.1,7.5-21.2c3.6-10.3,6-20.9,7.3-31.7
	c0.2-1.5-0.1-3.1-0.8-4.4c-6.1-9.8-12.4-19.5-18.6-29.3c-1.1-1.7-2.5-2.9-4.6-1.5c-1.7,1.1-1.9,3.1-0.6,5.5c1.4,2.6,2.9,5.2,4.2,8
	c3,6.3,5.9,12.6,6.5,19.7c0.4,3.3-1,6.6-3.6,8.5c-14,11.9-26.2,25.6-35.4,42c-9.5,17-14.5,35-10.5,54.7c2,9.9,5.7,19.1,12.5,26.8
	c7.2,7.9,16.1,13.9,26.1,17.7c19.8,7.8,40,7.7,60.4,3.5c6.8-1.4,13.5-3.6,20.2-5.4c3.2-0.9,4.8-0.1,5.2,3.3c0.3,2.6,0.1,5.1-0.6,7.6
	c-1.9,6.8-4.3,13.5-6.3,20.2c-0.7,2.9-1.2,5.9-1.4,8.9c0,1.1,0.5,2.1,1.4,2.7c1,0.3,2.1,0.1,3-0.5c1.1-0.8,2-1.9,2.6-3.1
	c2.1-4.9,4.6-9.7,6-14.8c3-10.4,5.4-21.1,8.1-31.6c1-4,1.1-7.6-1.2-11.3c-6-10-11.8-20.1-17.6-30.2c-0.7-1.2-1.2-2.9-3.2-2
	c-1.9,0.8-2.9,2.9-2.3,4.9c0.4,1.1,1,2.2,1.6,3.2c3.7,6.8,7.3,13.6,9.3,21.2c1.4,5.2,0.2,8-4.7,9.8c-17.4,6.4-35.2,9.2-53.6,7.2
	c-11.1-1.2-21.5-4.6-30.9-11.2c-7.8-5.4-14.9-11.8-18.6-20.7c-7.3-17.4-5.7-34.9,1.5-51.9c6.4-14.9,16.8-26.6,28.8-36.9
	C100.7,105.4,101.2,105.1,101.7,104.8z M187.2,65.8c6.5,0.9,13,1.4,19.5,2.7c13.8,2.6,26.2,10.1,35,21.2
	c8.9,10.8,13.4,22.9,11.4,37.3c-1.4,10.1-4.2,19.9-8.2,29.2c-4.7,11-10.5,21.3-18.3,30.2c-1.7,1.9-3.7,3.5-5.9,4.8
	c-1.6,1.1-3,0.3-3.4-1.6c-0.2-1.1-0.2-2.2,0-3.3c1.2-4.4,2.6-8.7,3.9-13.1c1.4-4.9,3.1-9.7,4.2-14.6c0.7-3.2-0.9-5.2-3.4-5.7
	c-2.8-0.5-4.4,0.6-5.3,4.1c-3.9,15.3-7.9,30.6-11.7,45.9c-1.1,4.2-1.9,8.5,1,12.6s5,8.8,7.7,13.1c3.2,5,6.7,9.7,10.2,14.5
	c0.8,0.9,2,1.3,3.2,1.1c1-0.7,1.6-1.8,1.7-3c-0.2-2.3-0.8-4.5-1.6-6.6c-2.2-5-5-9.6-6.8-14.7c-2.7-7.3-2.9-13.5,4.5-19.8
	c3.4-3,6.6-6.2,9.6-9.6c17-18.7,29.8-39.6,32.5-65.8c1.9-17.9-2.4-33.6-14.6-46.8c-12.5-13.5-28.3-19.7-45.9-21.5
	c-19.2-2-38,1.1-56.4,6.4c-4.6,1.3-6.5,0.3-5.9-4.7c0.7-6.4,2.3-12.7,3.3-19.1c0.4-2.9,0.6-5.8,0.5-8.7c-0.2-1-0.9-1.9-1.9-2.3
	c-0.9-0.2-2.1,0.5-3.1,1.1c-0.6,0.5-1,1.2-1.2,1.9c-6,13.3-9.9,27.4-11.6,41.9c-0.2,2.4,0.2,4.8,1.1,7c1.6,3.9,3.5,7.6,5.6,11.2
	c4,6.9,8.1,13.7,12.2,20.6c0.9,1.8,3,2.5,4.8,1.8c2.1-0.7,2.4-2.5,2.1-4.4c-0.1-0.8-0.4-1.7-0.7-2.5c-1.5-3.1-3.2-6.1-4.8-9.1
	c-2.7-5.3-5.8-10.6-6.5-16.7c-0.5-4.5,1.1-7.1,5.4-8.4C161.5,68.7,174.3,66.5,187.2,65.8L187.2,65.8z M126.1,39.5
	c-0.1-1.4-0.3-2.7-0.6-4.1c-1.2-4.1-3.4-7.4-7.6-8.5s-7.6,0.6-10.1,4.2c-3.8,5.7-3.5,13.2,0.7,18.5c3,3.9,8.5,4.6,12.3,1.6
	c0.4-0.3,0.9-0.7,1.2-1.2C124.7,47.2,126.2,43.4,126.1,39.5z M203.1,170.5c-0.1-1.4-0.3-2.7-0.6-4.1c-1.2-4.1-3.4-7.4-7.6-8.5
	s-7.6,0.6-10.1,4.2c-3.8,5.7-3.5,13.2,0.7,18.5c3,3.9,8.5,4.6,12.3,1.6c0.4-0.3,0.9-0.7,1.2-1.2
	C201.7,178.2,203.2,174.4,203.1,170.5z"/>
<path class="st1" d="M101.7,104.8c-0.6,0.2-1.1,0.5-1.6,0.9c-12,10.3-22.4,22-28.8,36.9c-7.3,17-8.8,34.5-1.5,51.9
	c3.7,8.9,10.9,15.3,18.6,20.7c9.3,6.5,19.8,9.9,30.9,11.2c18.4,2.1,36.3-0.8,53.6-7.2c4.9-1.8,6-4.5,4.7-9.8
	c-2-7.6-5.6-14.4-9.3-21.2c-0.6-1-1.2-2.1-1.6-3.2c-0.6-2,0.4-4.1,2.3-4.9c2-0.8,2.5,0.8,3.2,2c5.9,10.1,11.6,20.2,17.6,30.2
	c2.2,3.7,2.2,7.3,1.2,11.3c-2.8,10.5-5.1,21.1-8.1,31.6c-1.5,5.1-3.9,9.9-6,14.8c-0.6,1.2-1.5,2.3-2.6,3.1c-0.9,0.6-2,0.8-3,0.5
	c-0.9-0.6-1.4-1.6-1.4-2.7c0.2-3,0.6-6,1.4-8.9c2-6.8,4.3-13.4,6.3-20.2c0.7-2.5,0.9-5.1,0.6-7.6c-0.4-3.4-2-4.1-5.2-3.3
	c-6.7,1.9-13.4,4-20.2,5.4c-20.4,4.2-40.7,4.4-60.4-3.5c-10-3.8-18.9-9.8-26.1-17.7c-6.8-7.6-10.5-16.8-12.5-26.8
	c-4-19.7,1-37.7,10.5-54.7c9.2-16.3,21.3-30,35.4-42c2.7-2,4-5.3,3.6-8.5c-0.7-7.1-3.5-13.5-6.5-19.7c-1.3-2.7-2.8-5.3-4.2-8
	c-1.3-2.4-1.1-4.4,0.6-5.5c2.1-1.4,3.5-0.2,4.6,1.5c6.2,9.7,12.5,19.5,18.6,29.3c0.7,1.4,1,2.9,0.8,4.4c-1.3,10.8-3.7,21.4-7.3,31.7
	c-2.4,7.1-5,14.1-7.5,21.2c0,0.1,0,0.2-0.1,0.2c-1.1,3.1-3,4.7-4.8,4.1s-2.7-3.8-2.1-6.6c2.2-10,4.5-20,6.6-30.1
	C102,105.6,101.9,105.4,101.7,104.8z"/>
<path class="st1" d="M187.2,65.8c-12.9,0.7-25.7,3-38.1,6.7c-4.2,1.3-5.9,3.9-5.4,8.4c0.7,6.1,3.8,11.4,6.5,16.7
	c1.6,3,3.2,6.1,4.8,9.1c0.4,0.8,0.6,1.6,0.7,2.5c0.3,1.9,0,3.8-2.1,4.4c-1.8,0.7-3.9-0.1-4.8-1.8c-4.1-6.9-8.2-13.6-12.2-20.6
	c-2.1-3.6-4-7.4-5.6-11.3c-0.9-2.2-1.3-4.6-1.1-7c1.7-14.5,5.7-28.6,11.6-41.9c0.2-0.7,0.6-1.4,1.2-1.9c0.9-0.6,2.1-1.3,3.1-1.1
	c1,0.4,1.7,1.3,1.9,2.3c0.1,2.9-0.1,5.8-0.5,8.7c-1,6.4-2.6,12.7-3.3,19.1c-0.5,5,1.3,6,5.9,4.7c18.5-5.3,37.2-8.4,56.4-6.4
	c17.6,1.8,33.3,8,45.8,21.5c12.2,13.2,16.5,28.9,14.6,46.8c-2.8,26.2-15.5,47.1-32.5,65.8c-3,3.4-6.2,6.6-9.6,9.6
	c-7.3,6.2-7.2,12.4-4.5,19.8c1.9,5,4.7,9.7,6.8,14.7c0.9,2.1,1.5,4.4,1.6,6.6c0,1.2-0.6,2.4-1.7,3c-1.2,0.2-2.4-0.2-3.2-1.1
	c-3.5-4.7-7-9.5-10.2-14.5c-2.7-4.2-4.8-8.9-7.7-13.1s-2-8.4-1-12.6c3.8-15.3,7.8-30.6,11.7-45.9c0.9-3.5,2.5-4.7,5.3-4.1
	c2.6,0.5,4.1,2.5,3.4,5.7c-1.1,5-2.8,9.8-4.2,14.6c-1.3,4.4-2.7,8.7-3.9,13.1c-0.2,1.1-0.2,2.2,0,3.3c0.4,2,1.8,2.7,3.4,1.6
	c2.2-1.4,4.1-3,5.9-4.8c7.9-8.9,13.6-19.3,18.3-30.2c4-9.3,6.8-19.2,8.2-29.2c2-14.4-2.5-26.5-11.4-37.3c-8.8-11-21.2-18.5-35-21.2
	C200.2,67.2,193.7,66.7,187.2,65.8z"/>
</svg>
