<?xml version="1.0" standalone="no"?>
<!DOCTYPE svg PUBLIC "-//W3C//DTD SVG 20010904//EN"
 "http://www.w3.org/TR/2001/REC-SVG-20010904/DTD/svg10.dtd">
<svg version="1.0" xmlns="http://www.w3.org/2000/svg"
 width="1320.000000pt" height="434.000000pt" viewBox="0 0 1320.000000 434.000000"
 preserveAspectRatio="xMidYMid meet">
<metadata>
Created by potrace 1.14, written by Peter Selinger 2001-2017
</metadata>
<g transform="translate(0.000000,434.000000) scale(0.100000,-0.100000)"
fill="#000000" stroke="none">
<path d="M10470 3687 c-29 -22 -50 -61 -50 -92 0 -60 46 -104 108 -105 35 0
49 6 73 29 24 24 29 38 29 76 0 38 -5 52 -29 76 -24 23 -38 29 -73 29 -24 0
-50 -6 -58 -13z"/>
<path d="M4237 3683 c-4 -3 -7 -271 -7 -595 l0 -588 95 0 95 0 0 233 c0 277 7
315 74 382 53 53 98 68 186 63 83 -4 130 -33 163 -98 21 -43 22 -59 25 -312
l4 -268 89 0 89 0 0 294 c0 260 -2 301 -19 355 -35 114 -111 180 -231 201
-130 23 -239 -7 -322 -91 l-58 -57 0 244 0 244 -88 0 c-49 0 -92 -3 -95 -7z"/>
<path d="M10907 3683 c-4 -3 -7 -271 -7 -595 l0 -588 95 0 95 0 0 595 0 595
-88 0 c-49 0 -92 -3 -95 -7z"/>
<path d="M11377 3683 c-4 -3 -7 -271 -7 -595 l0 -588 95 0 95 0 0 595 0 595
-88 0 c-49 0 -92 -3 -95 -7z"/>
<path d="M820 3619 c-144 -21 -258 -100 -293 -203 -50 -146 7 -287 144 -357
22 -11 111 -43 197 -71 141 -46 161 -55 200 -93 34 -35 42 -49 42 -79 0 -83
-60 -132 -173 -142 -110 -10 -269 43 -371 125 -21 17 -40 31 -42 31 -2 0 -22
-36 -44 -80 l-40 -79 53 -40 c121 -90 257 -134 412 -133 254 2 415 127 415
322 0 160 -85 245 -323 321 -158 50 -216 78 -251 119 -37 44 -36 101 2 140 80
80 258 62 475 -48 8 -4 77 138 77 158 0 20 -150 82 -244 101 -96 20 -147 22
-236 8z"/>
<path d="M6130 3604 c-201 -52 -359 -204 -415 -397 -22 -75 -22 -219 0 -294
62 -215 235 -369 460 -410 76 -14 104 -15 181 -5 106 14 238 58 309 105 l50
32 3 208 2 207 -85 0 -85 0 0 -159 0 -159 -47 -20 c-93 -38 -129 -46 -213 -46
-103 1 -177 26 -253 88 -98 79 -147 183 -147 308 1 245 224 429 470 388 73
-12 169 -53 225 -95 l33 -26 51 67 c28 37 51 70 51 73 0 8 -86 65 -138 91
-115 56 -326 77 -452 44z"/>
<path d="M3610 3435 l0 -115 -60 0 -60 0 0 -70 0 -70 59 0 60 0 3 -262 c3
-247 4 -265 25 -303 66 -124 206 -156 373 -84 l48 21 -20 61 c-11 34 -24 65
-28 70 -3 4 -26 1 -49 -8 -53 -18 -110 -19 -134 -1 -31 23 -37 74 -37 293 l0
213 125 0 125 0 0 70 0 70 -125 0 -125 0 0 115 0 115 -90 0 -90 0 0 -115z"/>
<path d="M1784 3345 c-209 -45 -334 -202 -334 -419 0 -129 38 -225 120 -306
83 -84 185 -123 320 -123 135 0 237 39 320 123 82 81 120 177 120 306 0 219
-125 374 -339 420 -80 17 -127 17 -207 -1z m217 -168 c185 -90 199 -390 22
-494 -43 -25 -58 -28 -133 -28 -75 0 -90 3 -133 28 -113 67 -159 236 -99 369
42 95 136 151 242 145 36 -1 81 -11 101 -20z"/>
<path d="M7360 3344 c-67 -18 -124 -56 -167 -113 l-33 -43 0 81 0 81 -90 0
-90 0 0 -425 0 -425 90 0 90 0 0 228 c0 272 8 310 75 377 45 46 116 75 182 75
l33 0 0 90 c0 102 4 99 -90 74z"/>
<path d="M7865 3354 c-91 -13 -275 -84 -275 -105 0 -7 54 -102 67 -118 2 -3
32 9 66 26 198 98 387 47 387 -104 l0 -43 -158 0 c-242 0 -330 -32 -384 -139
-73 -143 3 -319 155 -362 59 -17 182 -15 248 4 30 9 77 33 102 52 l47 36 0
-51 0 -50 90 0 90 0 0 268 c0 147 -5 296 -10 331 -23 165 -123 244 -319 255
-42 2 -89 2 -106 0z m245 -531 c0 -66 -18 -101 -72 -138 -91 -61 -245 -60
-301 2 -24 28 -32 86 -17 123 23 56 65 68 253 69 l137 1 0 -57z"/>
<path d="M8941 3349 c-69 -13 -127 -47 -176 -101 l-45 -50 0 76 0 76 -90 0
-90 0 0 -425 0 -425 90 0 90 0 0 233 c0 259 7 305 60 369 44 53 102 78 182 78
90 0 144 -29 178 -95 25 -49 25 -53 28 -317 l3 -268 90 0 89 0 0 294 c0 329
-8 383 -70 459 -72 85 -203 123 -339 96z"/>
<path d="M12125 3354 c-135 -32 -170 -49 -240 -115 -36 -33 -63 -72 -86 -122
-29 -62 -34 -85 -37 -169 -5 -120 19 -211 75 -286 88 -115 194 -165 353 -165
129 0 232 35 315 107 l40 35 -49 50 -49 49 -49 -34 c-62 -42 -114 -57 -198
-57 -75 0 -120 16 -175 64 -37 33 -89 125 -79 141 3 4 147 8 320 8 285 0 315
2 321 17 11 28 -13 195 -37 258 -31 81 -113 164 -192 193 -56 21 -192 36 -233
26z m180 -172 c22 -11 50 -31 62 -44 27 -29 53 -89 53 -123 l0 -25 -241 0
-241 0 7 28 c19 79 80 151 149 176 56 21 159 15 211 -12z"/>
<path d="M2503 3038 c2 -213 7 -325 15 -350 18 -54 71 -118 122 -150 129 -78
349 -43 435 69 l35 46 0 -77 0 -76 95 0 95 0 0 425 0 425 -95 0 -95 0 0 -247
c0 -240 -1 -250 -24 -298 -42 -90 -112 -135 -208 -135 -74 0 -132 30 -166 88
l-27 47 -3 273 -3 272 -90 0 -90 0 4 -312z"/>
<path d="M9463 3343 c3 -5 76 -190 162 -413 86 -223 159 -411 162 -418 4 -9
30 -12 101 -10 l96 3 57 150 c32 83 104 273 162 423 l105 272 -93 0 -92 0
-114 -329 c-63 -181 -117 -328 -120 -326 -3 2 -57 151 -120 329 l-114 326 -98
0 c-54 0 -96 -3 -94 -7z"/>
<path d="M10440 2925 l0 -425 90 0 90 0 0 425 0 425 -90 0 -90 0 0 -425z"/>
<path d="M3710 1727 c-29 -22 -50 -61 -50 -92 0 -60 46 -104 108 -105 35 0 49
6 73 29 24 24 29 38 29 76 0 38 -5 52 -29 76 -24 23 -38 29 -73 29 -24 0 -50
-6 -58 -13z"/>
<path d="M820 1659 c-144 -21 -258 -100 -293 -203 -50 -146 7 -287 144 -357
22 -11 111 -43 197 -71 141 -46 161 -55 200 -93 34 -35 42 -49 42 -79 0 -83
-60 -132 -173 -142 -110 -10 -269 43 -371 125 -21 17 -40 31 -42 31 -2 0 -22
-36 -44 -80 l-40 -79 53 -40 c121 -90 257 -134 412 -133 254 2 415 127 415
322 0 160 -85 245 -323 321 -158 50 -216 78 -251 119 -37 44 -36 101 2 140 80
80 258 62 475 -48 8 -4 77 138 77 158 0 20 -150 82 -244 101 -96 20 -147 22
-236 8z"/>
<path d="M7583 1641 c-101 -29 -173 -71 -249 -146 -115 -113 -166 -235 -165
-399 0 -299 219 -531 529 -562 135 -13 294 37 420 130 72 54 73 42 -12 133
l-39 42 -38 -30 c-20 -16 -68 -44 -106 -62 -63 -29 -76 -32 -168 -32 -88 0
-107 3 -158 27 -160 75 -243 210 -235 381 8 187 137 330 329 367 104 20 218
-11 319 -87 34 -25 62 -44 64 -42 1 2 26 32 54 67 l52 63 -46 39 c-57 47 -151
94 -231 114 -82 21 -240 20 -320 -3z"/>
<path d="M10520 1475 l0 -115 -60 0 -60 0 0 -70 0 -70 59 0 60 0 3 -262 c3
-247 4 -265 25 -303 66 -124 206 -156 373 -84 l48 21 -20 61 c-11 34 -24 65
-28 70 -3 4 -26 1 -49 -8 -53 -18 -110 -19 -134 -1 -31 23 -37 74 -37 293 l0
213 125 0 125 0 0 70 0 70 -125 0 -125 0 0 115 0 115 -90 0 -90 0 0 -115z"/>
<path d="M1865 1394 c-135 -32 -170 -49 -240 -115 -36 -33 -63 -72 -86 -122
-29 -62 -34 -85 -37 -169 -5 -120 19 -211 75 -286 88 -115 194 -165 353 -165
129 0 232 35 315 107 l40 35 -49 50 -49 49 -49 -34 c-62 -42 -114 -57 -198
-57 -75 0 -120 16 -175 64 -37 33 -89 125 -79 141 3 4 147 8 320 8 285 0 315
2 321 17 11 28 -13 195 -37 258 -31 81 -113 164 -192 193 -56 21 -192 36 -233
26z m180 -172 c22 -11 50 -31 62 -44 27 -29 53 -89 53 -123 l0 -25 -241 0
-241 0 7 28 c19 79 80 151 149 176 56 21 159 15 211 -12z"/>
<path d="M2971 1389 c-69 -13 -127 -47 -176 -101 l-45 -50 0 76 0 76 -90 0
-90 0 0 -425 0 -425 90 0 90 0 0 233 c0 259 7 305 60 369 44 53 102 78 182 78
90 0 144 -29 178 -95 25 -49 25 -53 28 -317 l3 -268 90 0 89 0 0 294 c0 329
-8 383 -70 459 -72 85 -203 123 -339 96z"/>
<path d="M4444 1385 c-209 -45 -334 -202 -334 -419 0 -129 38 -225 120 -306
83 -84 185 -123 320 -123 135 0 237 39 320 123 82 81 120 177 120 306 0 219
-125 374 -339 420 -80 17 -127 17 -207 -1z m217 -168 c185 -90 199 -390 22
-494 -43 -25 -58 -28 -133 -28 -75 0 -90 3 -133 28 -113 67 -159 236 -99 369
42 95 136 151 242 145 36 -1 81 -11 101 -20z"/>
<path d="M5620 1384 c-67 -18 -124 -56 -167 -113 l-33 -43 0 81 0 81 -90 0
-90 0 0 -425 0 -425 90 0 90 0 0 228 c0 272 8 310 75 377 45 46 116 75 182 75
l33 0 0 90 c0 102 4 99 -90 74z"/>
<path d="M6073 1390 c-47 -10 -94 -32 -139 -66 -72 -53 -96 -185 -51 -274 33
-66 86 -100 232 -150 153 -52 188 -78 183 -136 -4 -53 -41 -77 -123 -82 -77
-5 -176 22 -247 67 l-48 31 -31 -61 c-17 -34 -28 -66 -26 -73 8 -20 117 -73
187 -91 36 -9 101 -17 145 -17 194 -1 312 84 323 233 5 69 -10 119 -51 165
-38 44 -92 71 -233 118 -116 38 -150 60 -160 101 -8 31 18 72 52 85 57 22 167
6 267 -38 l47 -21 30 59 c17 33 30 64 30 70 0 17 -100 59 -177 75 -74 16 -145
17 -210 5z"/>
<path d="M8675 1394 c-135 -32 -170 -49 -240 -115 -36 -33 -63 -72 -86 -122
-29 -62 -34 -85 -37 -169 -5 -120 19 -211 75 -286 88 -115 194 -165 353 -165
129 0 232 35 315 107 l40 35 -49 50 -49 49 -49 -34 c-62 -42 -114 -57 -198
-57 -75 0 -120 16 -175 64 -37 33 -89 125 -79 141 3 4 147 8 320 8 285 0 315
2 321 17 11 28 -13 195 -37 258 -31 81 -113 164 -192 193 -56 21 -192 36 -233
26z m180 -172 c22 -11 50 -31 62 -44 27 -29 53 -89 53 -123 l0 -25 -241 0
-241 0 7 28 c19 79 80 151 149 176 56 21 159 15 211 -12z"/>
<path d="M9781 1389 c-69 -13 -127 -47 -176 -101 l-45 -50 0 76 0 76 -90 0
-90 0 0 -425 0 -425 90 0 90 0 0 233 c0 259 7 305 60 369 44 53 102 78 182 78
90 0 144 -29 178 -95 25 -49 25 -53 28 -317 l3 -268 90 0 89 0 0 294 c0 329
-8 383 -70 459 -72 85 -203 123 -339 96z"/>
<path d="M11570 1384 c-67 -18 -124 -56 -167 -113 l-33 -43 0 81 0 81 -90 0
-90 0 0 -425 0 -425 90 0 90 0 0 228 c0 272 8 310 75 377 45 46 116 75 182 75
l33 0 0 90 c0 102 4 99 -90 74z"/>
<path d="M12155 1394 c-135 -32 -170 -49 -240 -115 -36 -33 -63 -72 -86 -122
-29 -62 -34 -85 -37 -169 -5 -120 19 -211 75 -286 88 -115 194 -165 353 -165
129 0 232 35 315 107 l40 35 -49 50 -49 49 -49 -34 c-62 -42 -114 -57 -198
-57 -75 0 -120 16 -175 64 -37 33 -89 125 -79 141 3 4 147 8 320 8 285 0 315
2 321 17 11 28 -13 195 -37 258 -31 81 -113 164 -192 193 -56 21 -192 36 -233
26z m180 -172 c22 -11 50 -31 62 -44 27 -29 53 -89 53 -123 l0 -25 -241 0
-241 0 7 28 c19 79 80 151 149 176 56 21 159 15 211 -12z"/>
<path d="M3680 965 l0 -425 90 0 90 0 0 425 0 425 -90 0 -90 0 0 -425z"/>
</g>
</svg>
