<svg id="Layer_1" data-name="Layer 1" xmlns="http://www.w3.org/2000/svg" viewBox="0 0 316.73 290.29"><defs><style>.cls-1{fill:#ffbc49;}.cls-2{fill:#fff;}</style></defs><title>SGSC_LOGO</title><path class="cls-1" d="M340.41,516.88c-29.61-.3-57.4-7.3-82.8-23.18-23.37-14.62-41.06-34.56-51.73-60.6a125.38,125.38,0,0,1-7.67-69.68c6.72-39.63,27.1-70.75,57-95.75a175.38,175.38,0,0,1,63.27-33.57,172.22,172.22,0,0,1,56.15-7.38c33.23,1.34,63.79,11.06,90.3,32.24A125.29,125.29,0,0,1,507,319.74,129.25,129.25,0,0,1,511.53,379c-3.49,23.5-12.7,44.67-26.37,63.75-20.42,28.51-47.1,48.6-79.12,61.34a168.92,168.92,0,0,1-49.26,11.7C351.32,516.18,345.86,516.5,340.41,516.88ZM298.06,331.4c.19.6.31.78.28.92-2.21,10-4.4,20-6.65,30.06-.63,2.8.31,6,2.11,6.61s3.64-1,4.76-4.07c0-.08,0-.17.06-.25,2.52-7,5.15-14.06,7.52-21.16a150.83,150.83,0,0,0,7.29-31.72,7.46,7.46,0,0,0-.8-4.41c-6.11-9.82-12.36-19.54-18.61-29.26-1.1-1.71-2.53-2.93-4.65-1.54-1.73,1.14-1.9,3.14-.61,5.5,1.44,2.63,2.93,5.24,4.22,7.95,3,6.28,5.86,12.64,6.55,19.74a9.24,9.24,0,0,1-3.63,8.55c-14.05,11.94-26.19,25.64-35.35,41.95-9.54,17-14.5,35-10.5,54.67,2,9.92,5.74,19.15,12.54,26.76a67.82,67.82,0,0,0,26.11,17.71c19.75,7.84,40,7.7,60.44,3.48,6.83-1.41,13.51-3.59,20.25-5.44,3.17-.87,4.79-.11,5.17,3.28a20.46,20.46,0,0,1-.63,7.63c-1.92,6.8-4.31,13.45-6.26,20.23a46,46,0,0,0-1.37,8.93,3.35,3.35,0,0,0,1.4,2.69,3.46,3.46,0,0,0,3-.53,8.06,8.06,0,0,0,2.61-3.1c2.14-4.86,4.56-9.66,6-14.75,3-10.44,5.37-21.06,8.12-31.57,1-4,1.07-7.58-1.18-11.3-6-10-11.75-20.14-17.61-30.21-.7-1.21-1.25-2.86-3.21-2a4,4,0,0,0-2.3,4.91,18.84,18.84,0,0,0,1.6,3.21c3.71,6.78,7.3,13.6,9.29,21.18,1.38,5.24.2,8-4.66,9.75-17.37,6.41-35.22,9.24-53.64,7.17-11.1-1.25-21.55-4.64-30.88-11.17-7.76-5.44-14.88-11.81-18.62-20.72-7.27-17.35-5.74-34.85,1.52-51.86,6.36-14.9,16.77-26.61,28.77-36.93A9.1,9.1,0,0,1,298.06,331.4Zm85.48-39c6.49.88,13,1.44,19.47,2.7a58.69,58.69,0,0,1,35,21.16c8.85,10.81,13.44,22.91,11.4,37.34a113.39,113.39,0,0,1-8.23,29.25c-4.73,11-10.45,21.3-18.32,30.23a29.34,29.34,0,0,1-5.85,4.83c-1.6,1.06-3,.34-3.36-1.64a7.65,7.65,0,0,1,0-3.31c1.2-4.39,2.57-8.74,3.86-13.11,1.44-4.86,3.11-9.67,4.18-14.62.7-3.22-.85-5.17-3.41-5.68-2.79-.55-4.41.65-5.31,4.14-3.93,15.28-7.88,30.56-11.7,45.87-1.06,4.24-1.92,8.45,1,12.63s5,8.83,7.69,13.06c3.21,5,6.69,9.74,10.24,14.45a3.53,3.53,0,0,0,3.19,1.11,3.73,3.73,0,0,0,1.66-3.05,22,22,0,0,0-1.65-6.65c-2.16-5-5-9.64-6.84-14.68-2.74-7.33-2.89-13.53,4.46-19.75a106.14,106.14,0,0,0,9.58-9.6c17.05-18.67,29.78-39.61,32.53-65.79,1.88-17.85-2.4-33.56-14.59-46.76C436,291,420.23,284.79,402.63,283c-19.22-2-38,1.15-56.42,6.42-4.65,1.33-6.45.26-5.91-4.7.7-6.41,2.26-12.72,3.26-19.11a48.92,48.92,0,0,0,.5-8.7,3.13,3.13,0,0,0-1.93-2.3c-.94-.18-2.15.5-3.07,1.1a4.48,4.48,0,0,0-1.2,1.93,145,145,0,0,0-11.64,41.93,14.59,14.59,0,0,0,1.13,7A95.09,95.09,0,0,0,333,317.8c4,6.92,8.11,13.73,12.2,20.58a3.82,3.82,0,0,0,4.79,1.84c2.13-.66,2.41-2.46,2.12-4.41a8.16,8.16,0,0,0-.73-2.45c-1.54-3.06-3.18-6.08-4.75-9.13-2.74-5.34-5.82-10.56-6.53-16.71-.53-4.52,1.14-7.13,5.36-8.4A159.94,159.94,0,0,1,383.53,292.37Zm15.72,100.37a51.08,51.08,0,0,0-1.6-6.24c-1.56-3.94-4.29-6.69-8.61-7-4.49-.29-7.44,2.34-9.43,6.17a16,16,0,0,0-1.08,11.84c1.21,4.53,4.9,7.95,9,8.36,3.87.39,7.76-1.87,9.7-6.12A46.83,46.83,0,0,0,399.25,392.74ZM326.42,264.08a29.28,29.28,0,0,0-.61-4.08c-1.19-4.09-3.36-7.45-7.64-8.49s-7.57.58-10.08,4.16a15.87,15.87,0,0,0,.74,18.54,8.79,8.79,0,0,0,13.56.47A14.9,14.9,0,0,0,326.42,264.08Z" transform="translate(-196.34 -226.59)"/><path class="cls-2" d="M298.06,331.4a9.1,9.1,0,0,0-1.57.86c-12,10.32-22.41,22-28.77,36.93-7.26,17-8.79,34.51-1.52,51.86,3.73,8.91,10.85,15.29,18.62,20.72,9.33,6.53,19.78,9.93,30.88,11.17,18.42,2.07,36.27-.76,53.64-7.17,4.87-1.8,6-4.52,4.66-9.75-2-7.59-5.58-14.4-9.29-21.18a18.84,18.84,0,0,1-1.6-3.21,4,4,0,0,1,2.3-4.91c2-.83,2.51.82,3.21,2,5.87,10.07,11.6,20.23,17.61,30.21,2.25,3.73,2.22,7.32,1.18,11.3-2.75,10.51-5.13,21.13-8.12,31.57-1.46,5.09-3.88,9.89-6,14.75a8.06,8.06,0,0,1-2.61,3.1,3.46,3.46,0,0,1-3,.53,3.35,3.35,0,0,1-1.4-2.69,46,46,0,0,1,1.37-8.93c1.95-6.79,4.34-13.44,6.26-20.23a20.46,20.46,0,0,0,.63-7.63c-.38-3.38-2-4.15-5.17-3.28-6.74,1.85-13.42,4-20.25,5.44-20.41,4.23-40.69,4.36-60.44-3.48A67.82,67.82,0,0,1,262.6,441.7c-6.8-7.61-10.53-16.84-12.54-26.76-4-19.69,1-37.68,10.5-54.67,9.16-16.31,21.3-30,35.35-41.95a9.24,9.24,0,0,0,3.63-8.55c-.69-7.1-3.54-13.46-6.55-19.74-1.3-2.71-2.79-5.31-4.22-7.95-1.29-2.36-1.11-4.36.61-5.5,2.11-1.4,3.55-.17,4.65,1.54,6.25,9.72,12.51,19.45,18.61,29.26a7.46,7.46,0,0,1,.8,4.41,150.83,150.83,0,0,1-7.29,31.72c-2.37,7.1-5,14.11-7.52,21.16,0,.08,0,.17-.06.25-1.12,3.06-3,4.66-4.76,4.07s-2.74-3.8-2.11-6.61c2.25-10,4.45-20,6.65-30.06C298.37,332.18,298.25,332,298.06,331.4Z" transform="translate(-196.34 -226.59)"/><path class="cls-2" d="M383.53,292.37a159.94,159.94,0,0,0-38.12,6.74c-4.21,1.28-5.88,3.88-5.36,8.4.71,6.15,3.79,11.38,6.53,16.71,1.57,3.05,3.21,6.07,4.75,9.13a8.16,8.16,0,0,1,.73,2.45c.29,1.94,0,3.75-2.12,4.41a3.82,3.82,0,0,1-4.79-1.84c-4.08-6.85-8.24-13.65-12.2-20.58a95.09,95.09,0,0,1-5.61-11.28,14.59,14.59,0,0,1-1.13-7,145,145,0,0,1,11.64-41.93,4.48,4.48,0,0,1,1.2-1.93c.92-.59,2.13-1.28,3.07-1.1a3.13,3.13,0,0,1,1.93,2.3,48.92,48.92,0,0,1-.5,8.7c-1,6.39-2.56,12.69-3.26,19.11-.54,5,1.26,6,5.91,4.7,18.47-5.26,37.2-8.39,56.42-6.42,17.59,1.81,33.33,8,45.8,21.53,12.19,13.2,16.47,28.91,14.59,46.76-2.75,26.18-15.48,47.11-32.53,65.79a106.14,106.14,0,0,1-9.58,9.6c-7.34,6.22-7.19,12.42-4.46,19.75,1.89,5,4.68,9.73,6.84,14.68a22,22,0,0,1,1.65,6.65,3.73,3.73,0,0,1-1.66,3.05,3.53,3.53,0,0,1-3.19-1.11c-3.55-4.71-7-9.49-10.24-14.45-2.74-4.23-4.84-8.92-7.69-13.06s-2-8.39-1-12.63c3.82-15.31,7.77-30.59,11.7-45.87.9-3.5,2.51-4.69,5.31-4.14,2.56.5,4.1,2.45,3.41,5.68-1.07,4.95-2.75,9.76-4.18,14.62-1.29,4.37-2.66,8.71-3.86,13.11a7.65,7.65,0,0,0,0,3.31c.38,2,1.76,2.7,3.36,1.64a29.34,29.34,0,0,0,5.85-4.83c7.87-8.93,13.59-19.28,18.32-30.23a113.39,113.39,0,0,0,8.23-29.25c2-14.43-2.55-26.53-11.4-37.34a58.69,58.69,0,0,0-35-21.16C396.58,293.81,390,293.25,383.53,292.37Z" transform="translate(-196.34 -226.59)"/><path class="cls-2" d="M399.25,392.74a46.83,46.83,0,0,1-2,7c-1.94,4.25-5.83,6.51-9.7,6.12-4.1-.42-7.79-3.83-9-8.36a16,16,0,0,1,1.08-11.84c2-3.82,4.94-6.46,9.43-6.17,4.32.28,7.05,3,8.61,7A51.08,51.08,0,0,1,399.25,392.74Z" transform="translate(-196.34 -226.59)"/><path class="cls-2" d="M326.42,264.08a14.9,14.9,0,0,1-4,10.6,8.79,8.79,0,0,1-13.56-.47,15.87,15.87,0,0,1-.74-18.54c2.51-3.58,5.89-5.18,10.08-4.16s6.45,4.41,7.64,8.49A29.28,29.28,0,0,1,326.42,264.08Z" transform="translate(-196.34 -226.59)"/></svg>