<?xml version="1.0" encoding="UTF-8"?>
<svg width="220px" height="220px" viewBox="0 0 220 220" version="1.1" xmlns="http://www.w3.org/2000/svg" xmlns:xlink="http://www.w3.org/1999/xlink">
    <g id="Page-1" stroke="none" stroke-width="1" fill="none" fill-rule="evenodd">
        <g id="Mobile-logo-pic" fill-rule="nonzero" fill="#F6A623">
            <path d="M113.236261,183 C97.1586072,182.834632 82.0691783,178.976055 68.2774729,170.222596 C55.588018,162.163681 45.9826925,151.172247 40.1890903,136.818338 C35.2317682,124.67762 33.7870739,111.353649 36.0244297,98.408954 C39.6732588,76.5638923 50.7392019,59.4097587 66.9743197,45.6291243 C77.0499481,37.127447 88.7452618,30.8278854 101.328698,27.1244885 C111.200727,24.0698018 121.502772,22.6952061 131.817054,23.0564452 C149.860297,23.7950872 166.453782,29.1529978 180.848196,40.8279513 C191.608325,49.4094359 199.569279,61.0855486 203.691386,74.3314296 C206.999623,84.8781732 207.841786,96.0623667 206.151088,106.997045 C204.256086,119.950842 199.255236,131.620283 191.832692,142.137663 C180.745029,157.853098 166.258309,168.927216 148.872072,175.949827 C140.326123,179.451548 131.309121,181.625743 122.124852,182.399164 C119.160178,182.614142 116.195504,182.790534 113.236261,183 Z M90.2410352,80.7587175 C90.3442015,81.0894527 90.4093592,81.1886732 90.3930698,81.2658448 C89.1930828,86.7780985 88.0039555,92.2903523 86.7822493,97.8356796 C86.4401716,99.3791106 86.9505733,101.143032 87.9279382,101.479279 C88.9053031,101.815527 89.9043873,100.928054 90.5125255,99.235792 C91.9134153,95.2394081 93.341454,91.3477569 94.6283179,87.4340567 C96.565136,81.7677711 97.8923035,75.9053595 98.5866459,69.9491878 C98.6907161,69.1128408 98.5390756,68.2642295 98.1522615,67.5182839 C94.8346505,62.1052508 91.4410222,56.7473401 88.0473939,51.3894295 C87.4501153,50.4468341 86.6736532,49.7743391 85.5225345,50.5405424 C84.5831782,51.1689393 84.4908715,52.2713901 85.1913163,53.572282 C85.9732083,55.0220047 86.7822493,56.4607029 87.4826942,57.9545237 C89.1116357,61.416219 90.6645601,64.9220124 91.0392166,68.8357126 C91.2643077,70.6521465 90.5118068,72.4514792 89.0681973,73.5486895 C81.4393209,80.1303205 74.8475373,87.6821082 69.8738357,96.672594 C64.6938015,106.043425 62.0006181,115.965482 64.1725402,126.808085 C65.2585012,132.276241 67.2892484,137.364051 70.981516,141.558876 C74.8856141,145.899102 79.7427698,149.243659 85.1587375,151.321078 C95.8826029,155.642685 106.877959,155.565513 117.976481,153.239342 C121.685038,152.462114 125.312147,151.260443 128.971836,150.240676 C130.693084,149.76111 131.572713,150.180041 131.779046,152.048695 C131.926713,153.460007 131.810655,154.886934 131.436968,156.254545 C130.394445,160.002877 129.096722,163.668526 128.03791,167.405834 C127.631445,169.017894 127.382283,170.666658 127.294026,172.328277 C127.299932,172.917342 127.582334,173.468197 128.054199,173.811073 C128.612466,173.974658 129.213879,173.866795 129.683141,173.518924 C130.291177,173.081145 130.778988,172.492955 131.10032,171.810125 C132.262298,169.13117 133.576311,166.485288 134.358203,163.679551 C135.987145,157.924758 137.274008,152.070744 138.767205,146.277366 C139.310185,144.072464 139.348194,142.099077 138.126488,140.048519 C134.868605,134.536265 131.746467,128.94684 128.564601,123.396 C128.184514,122.729018 127.885875,121.819496 126.821633,122.293549 C125.774671,122.727988 125.231382,123.905401 125.572778,125.000066 C125.80628,125.616583 126.097188,126.209078 126.441547,126.7695 C128.456005,130.506808 130.405305,134.266165 131.485836,138.444453 C132.235149,141.332874 131.594432,142.854256 128.955547,143.8189 C119.523975,147.352255 109.831773,148.912223 99.8300713,147.771186 C93.8029875,147.082155 88.128841,145.213501 83.0628327,141.613999 C78.8493038,138.615333 74.9832825,135.104027 72.9525353,130.192609 C69.0050669,120.628849 69.8358271,110.982405 73.7778657,101.606061 C77.2312218,93.392803 82.8836491,86.9379539 89.3994154,81.249308 C89.663418,81.0581373 89.9453173,80.8938147 90.2410352,80.7587175 Z M147.226841,60.7492363 C154.73431,62.1981989 161.478904,66.3377034 166.23116,72.4131653 C171.036538,78.3719116 173.528818,85.0417386 172.421138,92.9959208 C171.65086,98.5495611 170.147791,103.97269 167.952408,109.119263 C165.38411,115.182742 162.278262,120.860363 158.005005,125.782806 C157.064149,126.806089 155.996414,127.701041 154.828569,128.445225 C153.9598,129.029524 153.199627,128.632641 153.004154,127.541215 C152.872995,126.940317 152.872995,126.317557 153.004154,125.716659 C153.655731,123.29678 154.399614,120.898949 155.100059,118.490094 C155.881951,115.811139 156.788729,113.159745 157.369718,110.431179 C157.749804,108.656234 156.908184,107.581344 155.518154,107.300219 C154.003238,106.997045 153.12361,107.658516 152.634928,109.582292 C150.501014,118.005016 148.356241,126.42774 146.282055,134.867 C145.706496,137.204196 145.239533,139.524855 146.825036,141.828977 C148.410539,144.133099 149.539939,146.696297 151.000556,149.02798 C152.743524,151.784107 154.633096,154.396915 156.560677,156.993187 C156.998231,157.482517 157.650528,157.712938 158.292785,157.605047 C158.847541,157.229439 159.18463,156.600684 159.194132,155.92381 C159.0859,154.661925 158.783596,153.425046 158.298214,152.258161 C157.125376,149.502034 155.583312,146.944348 154.584228,144.166172 C153.096461,140.12569 153.015014,136.708093 157.005921,133.279471 C158.849188,131.629929 160.586652,129.8624 162.207674,127.987708 C171.465492,117.69633 178.377634,106.15367 179.870831,91.7225902 C180.891634,81.8832172 178.567677,73.2234666 171.948745,65.9472916 C165.139769,58.4892123 156.576966,55.0661027 147.020509,54.0794093 C136.584423,52.9769586 126.387249,54.7133185 116.385548,57.6182762 C113.860688,58.351406 112.883323,57.7615948 113.176533,55.0275169 C113.556619,51.4941623 114.403669,48.0159302 114.946649,44.4936 C115.177494,42.9064284 115.268352,41.3015089 115.218139,39.6979393 C115.104313,39.1217262 114.7094,38.6439591 114.170187,38.4301209 C113.659785,38.3309003 113.002779,38.7057336 112.503237,39.0364688 C112.19958,39.3283402 111.975167,39.6947515 111.85166,40.1003338 C108.611638,47.438008 106.480884,55.2300276 105.531367,63.2132138 C105.420229,64.5310581 105.630975,65.8563879 106.144935,67.0717914 C107.031926,69.2016508 108.056779,71.2695889 109.212775,73.2620524 C111.384697,77.0765319 113.616347,80.8303768 115.837137,84.6062706 C116.318096,85.573133 117.44313,86.0118586 118.438014,85.6205253 C119.594563,85.2567165 119.746597,84.2645108 119.589133,83.1896214 C119.527721,82.7211084 119.393955,82.2653492 119.192757,81.8391192 C118.356567,80.1523695 117.466079,78.4876689 116.613599,76.8064315 C115.125833,73.862888 113.453453,70.9854916 113.067937,67.5954555 C112.780157,65.1039168 113.686934,63.6652186 115.978312,62.9651623 C122.695173,60.8808687 129.636299,59.6314851 136.649581,59.2443911 C140.178954,59.7460062 143.713757,60.0546924 147.226841,60.7492363 Z M144.321896,111.147772 C143.474846,108.975944 141.992509,107.460075 139.646833,107.289195 C137.208851,107.129339 135.607058,108.579062 134.526527,110.690255 C133.512568,112.70854 133.302583,115.045549 133.940108,117.216764 C134.597114,119.713815 136.600713,121.599005 138.826933,121.825008 C140.928267,122.039986 143.040462,120.794216 144.093844,118.451509 C144.556839,117.188862 144.92175,115.891356 145.185235,114.570882 C144.97265,113.423456 144.682484,112.274623 144.321896,111.147772 Z M105.639963,43.6502252 C105.58178,42.8935855 105.4711,42.1420541 105.308745,41.4012257 C104.662598,39.1467139 103.48433,37.2945966 101.160374,36.7213222 C98.836417,36.1480479 97.050011,37.041033 95.6871299,39.0144198 C93.6411406,42.1539288 93.8029772,46.2701588 96.0889355,49.2341383 C96.9569142,50.3825031 98.2851741,51.0767741 99.7101424,51.1269146 C101.135111,51.177055 102.507534,50.5778132 103.451751,49.4932142 C104.911269,47.9144842 105.697696,45.8145559 105.639963,43.6502252 Z" id="Shape"></path>
        </g>
    </g>
</svg>