
<svg width="25px" height="25px" viewBox="0 0 25 25" version="1.1" xmlns="http://www.w3.org/2000/svg" xmlns:xlink="http://www.w3.org/1999/xlink">
    <!-- Generator: Sketch 44.1 (41455) - http://www.bohemiancoding.com/sketch -->
    <desc>Created with Sketch.</desc>
    <defs></defs>
    <g id="Symbols" stroke="none" stroke-width="1" fill="none" fill-rule="evenodd">
        <g id="MOBILE-Bottom-Foot-" transform="translate(-118.000000, -149.000000)" fill-rule="nonzero">
            <g id="1496968373_online_social_media_facebook" transform="translate(118.000000, 149.000000)">
                <g id="facebook-circular">
                    <path d="M12.5,0 C5.59609375,0 0,5.59609375 0,12.5 C0,19.403125 5.59609375,25 12.5,25 C19.4039062,25 25,19.403125 25,12.5 C25,5.59609375 19.4039062,0 12.5,0 Z" id="Shape" fill="#000000"></path>
                    <path d="M10.6953125,19.4554688 L13.5695313,19.4554688 L13.5695313,12.4992188 L15.4867187,12.4992188 L15.740625,10.1023438 L13.5695313,10.1023438 L13.5726563,8.90234375 C13.5726563,8.27734375 13.6320313,7.9421875 14.5289063,7.9421875 L15.7273437,7.9421875 L15.7273437,5.54453125 L13.809375,5.54453125 C11.5054688,5.54453125 10.6953125,6.7078125 10.6953125,8.66328125 L10.6953125,10.1023438 L9.259375,10.1023438 L9.259375,12.5 L10.6953125,12.5 L10.6953125,19.4554688 L10.6953125,19.4554688 Z" id="Shape" fill="#FFFFFF"></path>
                </g>
            </g>
        </g>
    </g>
</svg>