
<svg width="36px" height="36px" viewBox="0 0 25 25" version="1.1" xmlns="http://www.w3.org/2000/svg" xmlns:xlink="http://www.w3.org/1999/xlink">
    <!-- Generator: Sketch 44.1 (41455) - http://www.bohemiancoding.com/sketch -->
    <desc>Created with Sketch.</desc>
    <defs></defs>
    <g id="Symbols" stroke="none" stroke-width="1" fill="none" fill-rule="evenodd">
        <g id="MOBILE-Bottom-Foot-" transform="translate(-153.000000, -149.000000)" fill-rule="nonzero">
            <g id="1496968387_twitter_online_social_media" transform="translate(153.000000, 149.000000)">
                <path d="M12.5,0 C5.59609375,0 0,5.59609375 0,12.5 C0,19.403125 5.59609375,25 12.5,25 C19.4039062,25 25,19.403125 25,12.5 C25,5.59609375 19.4039062,0 12.5,0 Z" id="Shape" fill="#000000"></path>
                <path d="M14.2390625,6.9421875 C12.996875,7.39453125 12.2117188,8.56015625 12.3007812,9.8359375 L12.3304688,10.328125 L11.8335938,10.2679688 C10.025,10.0367188 8.44453125,9.253125 7.10234375,7.93671875 L6.44609375,7.28359375 L6.278125,7.765625 C5.9203125,8.840625 6.14921875,9.9765625 6.89453125,10.740625 C7.2921875,11.1625 7.20234375,11.2226562 6.5171875,10.971875 C6.27890625,10.8914062 6.06953125,10.83125 6.05,10.8617187 C5.98046875,10.9320312 6.21875,11.8460937 6.4078125,12.2085937 C6.66640625,12.7117187 7.19296875,13.203125 7.76953125,13.4953125 L8.25703125,13.7265625 L7.6796875,13.7351562 C7.1234375,13.7351562 7.103125,13.7453125 7.16328125,13.9570312 C7.36171875,14.6101562 8.146875,15.3039062 9.021875,15.6054687 L9.63828125,15.8164062 L9.1015625,16.1382812 C8.30625,16.6015625 7.371875,16.8625 6.4375,16.88125 C5.98984375,16.8914062 5.621875,16.93125 5.621875,16.9617187 C5.621875,17.0617187 6.83515625,17.6242187 7.53984375,17.8460938 C9.65703125,18.4992187 12.171875,18.2171875 14.0601563,17.1023437 C15.4023438,16.3085938 16.74375,14.7304687 17.3703125,13.2023437 C17.7085938,12.3890625 18.0460938,10.9015625 18.0460938,10.1882812 C18.0460938,9.72578125 18.0757813,9.665625 18.6320313,9.11328125 C18.9601563,8.79140625 19.2679688,8.43984375 19.328125,8.33984375 C19.428125,8.1484375 19.4171875,8.1484375 18.9109375,8.31953125 C18.0664063,8.62109375 17.946875,8.58125 18.3648438,8.12890625 C18.6726563,7.80703125 19.040625,7.22421875 19.040625,7.05390625 C19.040625,7.02421875 18.8914063,7.07421875 18.7226563,7.1640625 C18.54375,7.26484375 18.1460938,7.415625 17.8476562,7.50546875 L17.3109375,7.6765625 L16.8242188,7.34375 C16.5554688,7.16328125 16.1789063,6.96171875 15.9796875,6.9015625 C15.471875,6.7609375 14.696875,6.78125 14.2390625,6.9421875 Z" id="Shape" fill="#FFFFFF"></path>
            </g>
        </g>
    </g>
</svg>